# xmcd
#
# Track frame offsets: 
#        150
#        10368
#        28679
#        47781
#        59529
#        77246
#        90886
#        106777
#        124268
#        143762
#        160155
#        176710
#        200701
#        215827
#        232008
#
# Disc length: 3432 seconds
#
# Revision: 0
# Processed by: cddbd v1.5.2PL0 Copyright (c) Steve Scherf et al.
# Submitted via: ExactAudioCopy v1.0b4
#
DISCID=d30d660f
DTITLE=Johnny Tucker - Seven Day Blues
DYEAR=2017
DGENRE=Blues
TTITLE0=Talkin' About You Baby
TTITLE1=Tired Of Doing Nothing
TTITLE2=Why Do You Let Me Down So Hard
TTITLE3=Love And Appreciation (To Georgia)
TTITLE4=Seven Day Blues
TTITLE5=Come On Home With Me
TTITLE6=Tell You All
TTITLE7=Something I Want To Tell You
TTITLE8=Gonna Give You One More Chance
TTITLE9=I Wanna Do It
TTITLE10=Do-Right Man
TTITLE11=One Of These Days
TTITLE12=I Can't Wait
TTITLE13=Listen Everybody
TTITLE14=You Can Leave My House
EXTD=
EXTT0=
EXTT1=
EXTT2=
EXTT3=
EXTT4=
EXTT5=
EXTT6=
EXTT7=
EXTT8=
EXTT9=
EXTT10=
EXTT11=
EXTT12=
EXTT13=
EXTT14=
PLAYORDER=
